<?xml version="1.0" standalone="no"?>
<!DOCTYPE svg PUBLIC "-//W3C//DTD SVG 20010904//EN"
 "http://www.w3.org/TR/2001/REC-SVG-20010904/DTD/svg10.dtd">
<svg version="1.0" xmlns="http://www.w3.org/2000/svg"
 width="1024.000000pt" height="1024.000000pt" viewBox="0 0 1024.000000 1024.000000"
 preserveAspectRatio="xMidYMid meet">

<g transform="translate(0.000000,1024.000000) scale(0.100000,-0.100000)"
fill="#000000" stroke="none">
<path d="M0 5120 l0 -5120 5120 0 5120 0 0 5120 0 5120 -5120 0 -5120 0 0
-5120z m5660 2638 c-30 -6 -60 -14 -66 -19 -6 -5 -14 -67 -18 -146 -6 -128
-19 -229 -31 -241 -3 -3 -12 3 -19 14 -13 18 -15 17 -20 -16 -13 -83 -15 -78
-10 50 9 279 15 330 37 341 24 13 99 27 147 27 27 0 22 -3 -20 -10z m301 -24
c13 -16 22 -119 33 -397 6 -143 12 -173 32 -181 8 -3 14 -19 14 -38 0 -21 7
-40 20 -51 16 -14 20 -29 20 -83 0 -65 1 -67 47 -118 72 -79 97 -143 101 -253
l4 -93 42 -19 c30 -13 48 -29 62 -57 18 -37 19 -72 22 -845 2 -791 2 -807 -17
-812 -12 -3 -21 1 -24 12 -4 19 17 44 28 33 4 -4 2 4 -5 18 -8 14 -13 26 -12
28 1 1 2 10 2 20 0 15 -2 15 -11 2 -8 -11 -9 -8 -3 15 4 17 6 41 5 54 -1 19 2
21 13 12 12 -10 13 -8 8 11 -3 12 -11 33 -18 46 -8 15 -9 34 -4 52 5 16 6 31
3 33 -2 3 -7 25 -9 49 -7 62 -22 114 -37 127 -7 5 -57 13 -110 17 -53 4 -97 9
-97 12 0 3 8 11 18 18 15 12 14 12 -8 8 -20 -5 -22 -3 -10 5 8 6 13 11 10 12
-28 5 -50 4 -50 -3 0 -4 5 -8 10 -8 6 0 10 -4 10 -10 0 -15 -16 -12 -34 5 -8
9 -19 16 -23 17 -4 0 -19 5 -32 10 -16 5 -28 5 -35 -2 -10 -10 2 -14 30 -11 6
1 17 -5 23 -13 10 -12 8 -13 -10 -9 -15 4 -20 2 -15 -5 3 -6 2 -13 -4 -17 -5
-3 -10 -1 -10 6 0 7 -3 9 -7 6 -4 -4 2 -20 14 -35 19 -26 19 -28 1 -46 -15
-16 -18 -17 -18 -4 0 9 -6 19 -12 22 -7 3 -3 3 10 0 27 -7 30 12 2 21 -16 5
-20 15 -20 56 0 31 4 48 10 44 6 -3 10 1 10 9 0 9 -5 16 -11 16 -5 0 -7 4 -4
10 3 6 16 -1 28 -14 25 -28 70 -45 62 -24 -3 7 -25 24 -50 37 -40 21 -45 27
-45 59 0 40 9 39 12 -1 1 -15 8 -27 15 -27 8 0 16 -7 19 -15 4 -8 10 -12 15
-9 5 3 7 9 4 14 -3 5 5 6 17 2 13 -3 80 -7 149 -9 133 -2 145 1 162 48 5 15 3
15 -25 1 -24 -12 -50 -13 -122 -8 -140 10 -136 -5 -136 455 0 237 3 322 13
341 13 24 15 25 107 22 52 -2 107 -10 123 -17 15 -7 27 -12 27 -10 0 16 -26
56 -39 59 -14 5 -208 26 -232 26 -5 0 -25 -25 -45 -55 l-35 -55 -2 -173 c-1
-94 -6 -178 -11 -186 -6 -10 -5 -12 2 -7 7 4 12 3 12 -2 0 -6 -7 -12 -15 -16
-13 -5 -15 30 -15 273 0 252 2 283 20 336 19 54 19 60 3 77 -23 26 -90 23
-162 -6 l-60 -24 -3 146 c-3 137 -5 151 -31 207 -16 33 -37 70 -48 81 -13 14
-17 24 -10 29 20 11 12 25 -15 25 -14 0 -23 -4 -19 -9 3 -6 -2 -14 -11 -19 -9
-5 -17 -13 -17 -18 -1 -4 -13 -7 -27 -6 -37 4 -66 -9 -144 -67 -52 -39 -77
-51 -104 -51 -32 0 -45 -9 -107 -74 l-70 -75 -90 -6 c-49 -3 -166 -12 -260
-20 -93 -8 -204 -17 -245 -20 -82 -6 -140 -12 -210 -20 -25 -4 -75 -8 -113
-10 -49 -3 -74 -9 -93 -24 -15 -12 -21 -21 -13 -21 9 0 10 -3 3 -8 -9 -6 -23
-32 -29 -54 -2 -5 -4 -10 -5 -13 -1 -3 -3 -11 -4 -17 -1 -7 -8 -12 -15 -10 -9
2 -12 -4 -8 -18 3 -11 1 -20 -5 -20 -5 0 -6 -4 -3 -10 3 -5 -10 -30 -29 -55
-29 -39 -33 -50 -26 -75 5 -17 6 -30 2 -30 -4 0 -1 -4 6 -9 20 -12 95 -13 280
-2 270 16 467 24 462 19 -3 -3 -59 -8 -125 -12 -209 -11 -287 -17 -390 -27
-55 -6 -128 -8 -162 -5 -36 3 -63 1 -63 -5 0 -5 5 -9 11 -9 6 0 7 -5 2 -12 -4
-7 -8 -26 -9 -43 -11 -196 -14 -405 -20 -1290 -4 -566 -8 -1055 -10 -1085 -3
-30 -5 -72 -5 -92 0 -27 -5 -38 -15 -38 -8 0 -12 -5 -9 -10 4 -6 11 -7 17 -4
6 4 8 2 5 -4 -4 -5 -16 -8 -26 -5 -19 5 -20 19 -21 421 0 353 -2 507 -11 857
0 22 -3 33 -6 25 -8 -19 -29 -40 -41 -40 -5 0 -10 -30 -11 -67 -3 -95 -11 -93
-11 3 0 66 4 86 25 123 20 35 25 57 25 117 0 65 -3 76 -25 98 -20 20 -25 35
-25 76 0 27 5 50 10 50 6 0 10 7 10 15 0 8 -4 15 -10 15 -5 0 -10 22 -10 48 0
36 5 54 20 67 17 15 20 31 20 102 0 59 -5 91 -16 108 -16 25 -16 22 2 274 4
59 2 86 -6 91 -6 4 -14 35 -17 68 -5 50 -2 68 16 102 11 22 21 47 21 56 0 8 8
29 17 47 29 55 33 117 12 159 -14 27 -19 59 -19 116 0 78 0 79 56 168 91 146
138 184 226 184 71 0 117 11 111 26 -2 7 5 19 16 26 12 7 21 21 21 31 0 11 11
22 29 28 34 12 41 40 41 170 0 113 12 131 96 136 41 2 53 0 39 -6 -37 -16 -45
-37 -50 -131 -2 -51 -7 -95 -10 -98 -3 -3 -5 45 -5 107 0 102 -2 112 -17 109
-16 -3 -18 -17 -21 -107 -2 -67 1 -108 9 -117 9 -11 8 -18 -1 -29 -11 -13 -5
-15 46 -16 l59 0 -37 -17 c-45 -20 -48 -32 -10 -33 17 -1 5 -7 -36 -17 -35
-10 -62 -21 -60 -27 4 -12 128 -9 233 5 39 5 92 12 118 15 42 6 48 9 45 28 -4
35 9 45 67 52 49 7 53 9 38 21 -16 12 -15 14 21 29 50 21 78 13 47 -14 -11
-10 -21 -23 -21 -29 0 -6 -10 -12 -22 -14 -19 -2 -24 -10 -26 -47 l-3 -44 73
7 c40 4 114 14 163 22 50 7 145 17 213 20 l122 7 0 29 c0 20 6 31 22 37 14 5
17 10 10 15 -16 9 -15 59 0 74 7 7 20 12 30 12 11 0 23 11 28 25 12 31 51 36
43 5 -5 -18 0 -20 43 -21 39 -1 44 -2 23 -8 -46 -15 -69 -31 -69 -51 0 -11 -6
-20 -12 -21 -7 0 -4 -4 7 -9 20 -9 20 -9 0 -9 -17 -1 -53 -38 -43 -46 2 -1 47
-7 100 -13 54 -6 102 -14 108 -17 20 -13 -3 -27 -34 -21 -22 4 -27 3 -16 -4 8
-5 11 -10 6 -10 -5 0 -3 -7 4 -15 7 -9 19 -14 26 -11 7 3 18 -1 24 -9 7 -9 24
-11 51 -8 34 5 44 2 71 -23 l31 -29 -19 29 -19 30 25 -8 c92 -28 102 -29 110
-15 5 7 7 16 5 19 -2 3 -5 41 -6 84 -2 67 -5 79 -20 83 -11 3 -19 12 -19 19 0
8 -4 14 -10 14 -5 0 -17 9 -27 19 -10 11 -29 21 -43 24 -16 3 -9 5 18 6 39 1
43 3 37 21 -6 18 -2 20 32 21 35 0 36 1 13 10 -13 6 -27 14 -30 20 -4 5 -7 51
-8 102 -1 50 -4 161 -8 245 -6 147 -6 152 14 152 11 0 25 -7 33 -16z m-1007
-252 c-20 -15 -22 -30 -28 -161 -4 -79 -9 -148 -12 -152 -3 -5 -14 -9 -26 -9
-17 0 -19 4 -12 23 4 12 9 81 11 152 3 117 6 132 24 148 12 9 31 17 43 17 l21
0 -21 -18z m106 9 c0 -5 -11 -11 -24 -13 -17 -4 -23 -1 -19 9 6 14 43 18 43 4z
m-193 -73 c-3 -7 -5 -2 -5 12 0 14 2 19 5 13 2 -7 2 -19 0 -25z m504 -128 c2
-80 0 -144 -4 -142 -4 1 -11 2 -17 2 -5 0 -10 7 -10 15 0 8 5 15 11 15 7 0 9
45 7 135 -2 74 0 131 4 127 3 -4 8 -72 9 -152z m-514 88 c-3 -8 -6 -5 -6 6 -1
11 2 17 5 13 3 -3 4 -12 1 -19z m0 -145 c-2 -21 -4 -4 -4 37 0 41 2 58 4 38 2
-21 2 -55 0 -75z m-277 87 c0 -5 -4 -10 -10 -10 -5 0 -10 5 -10 10 0 6 5 10
10 10 6 0 10 -4 10 -10z m235 -153 c0 -105 -2 -117 -17 -117 -10 0 -18 7 -18
15 0 8 5 15 11 15 8 0 9 30 4 106 -6 87 -5 106 6 102 11 -4 14 -32 14 -121z
m-468 71 c-3 -7 -5 -2 -5 12 0 14 2 19 5 13 2 -7 2 -19 0 -25z m0 -135 c-3
-10 -5 -2 -5 17 0 19 2 27 5 18 2 -10 2 -26 0 -35z m573 33 c0 -3 -4 -8 -10
-11 -5 -3 -10 -1 -10 4 0 6 5 11 10 11 6 0 10 -2 10 -4z m420 -16 c0 -5 -7 -7
-15 -4 -8 4 -15 8 -15 10 0 2 7 4 15 4 8 0 15 -4 15 -10z m30 -40 c11 -11 20
-25 20 -30 0 -16 -38 7 -50 30 -14 27 4 26 30 0z m-20 -503 c0 -2 -10 -12 -22
-23 l-23 -19 19 23 c18 21 26 27 26 19z m-133 -244 c-3 -10 -5 -4 -5 12 0 17
2 24 5 18 2 -7 2 -21 0 -30z m-394 -60 c-7 -2 -21 -2 -30 0 -10 3 -4 5 12 5
17 0 24 -2 18 -5z m25 -220 c-10 -2 -28 -2 -40 0 -13 2 -5 4 17 4 22 1 32 -1
23 -4z m-195 -10 c-24 -2 -62 -2 -85 0 -24 2 -5 4 42 4 47 0 66 -2 43 -4z
m-163 -6 c-5 -4 -81 -9 -350 -24 -63 -3 -112 -2 -107 2 7 8 160 18 357 23 57
2 102 1 100 -1z m1440 -196 c0 -6 -4 -13 -10 -16 -5 -3 -10 1 -10 9 0 9 5 16
10 16 6 0 10 -4 10 -9z m-1307 -18 c-18 -2 -48 -2 -65 0 -18 2 -4 4 32 4 36 0
50 -2 33 -4z m-268 -13 c-184 -13 -305 -16 -305 -8 0 8 118 13 305 14 l110 1
-110 -7z m1570 -60 c3 -5 1 -10 -4 -10 -6 0 -11 5 -11 10 0 6 2 10 4 10 3 0 8
-4 11 -10z m5 -30 c0 -5 -4 -10 -10 -10 -5 0 -10 5 -10 10 0 6 5 10 10 10 6 0
10 -4 10 -10z m0 -182 c0 -5 -4 -8 -10 -8 -5 0 -10 10 -10 23 0 18 2 19 10 7
5 -8 10 -18 10 -22z m-703 -230 c-3 -8 -6 -5 -6 6 -1 11 2 17 5 13 3 -3 4 -12
1 -19z m1049 -63 c17 -23 20 -285 4 -316 -10 -17 -22 -19 -115 -19 -147 0
-145 -3 -145 184 0 79 3 152 6 161 6 15 21 17 121 13 99 -3 117 -6 129 -23z
m-1708 -207 l27 -163 49 0 c49 0 49 0 62 40 7 22 18 59 24 83 6 24 17 42 25
42 8 0 19 -18 25 -42 20 -78 33 -113 43 -120 6 -3 76 -7 155 -7 80 0 147 -3
150 -6 3 -3 -33 -5 -79 -5 -104 0 -119 -9 -149 -90 -12 -33 -27 -59 -33 -57
-6 2 -20 32 -32 68 l-22 64 -51 3 c-63 4 -63 3 -92 -144 -22 -111 -33 -144
-45 -132 -3 3 -15 63 -25 133 -11 69 -22 130 -25 135 -5 9 -72 6 -82 -3 -4 -4
-41 -200 -43 -226 0 -3 -5 0 -10 5 -6 6 -17 51 -26 100 -23 137 -46 236 -52
229 -4 -4 -14 -25 -22 -48 l-16 -42 -77 -3 c-46 -2 -77 1 -77 7 0 6 32 11 71
13 l72 3 20 53 c33 88 47 68 80 -118 13 -68 26 -120 29 -115 7 12 43 234 59
370 12 100 25 153 35 142 3 -3 18 -79 32 -169z m1585 -174 c110 5 120 5 106
-10 -13 -12 -39 -15 -117 -16 -114 0 -138 5 -153 33 -10 20 -10 20 16 3 23
-15 42 -16 148 -10z m167 6 c0 -5 -5 -10 -11 -10 -5 0 -7 5 -4 10 3 6 8 10 11
10 2 0 4 -4 4 -10z m-1105 -629 c-7 -14 -29 -43 -48 -63 -28 -31 -42 -38 -73
-39 -156 -5 -981 4 -987 10 -5 5 0 16 9 26 17 16 37 17 254 11 374 -10 745
-10 762 0 21 12 78 83 78 98 0 6 4 5 9 -3 6 -10 5 -24 -4 -40z m-792 -628
c-13 -2 -35 -2 -50 0 -16 2 -5 4 22 4 28 0 40 -2 28 -4z m-503 -14 c0 8 3 11
6 8 8 -7 -14 -37 -26 -37 -5 0 -6 9 -3 21 4 16 8 17 14 7 7 -11 9 -10 9 1z
m393 -156 c-18 -2 -48 -2 -65 0 -18 2 -4 4 32 4 36 0 50 -2 33 -4z m-115 -170
c-16 -2 -40 -2 -55 0 -16 2 -3 4 27 4 30 0 43 -2 28 -4z m90 -180 c-10 -2 -28
-2 -40 0 -13 2 -5 4 17 4 22 1 32 -1 23 -4z m-90 -170 c-10 -2 -28 -2 -40 0
-13 2 -5 4 17 4 22 1 32 -1 23 -4z m40 -180 c-10 -2 -26 -2 -35 0 -10 3 -2 5
17 5 19 0 27 -2 18 -5z m160 -10 c-10 -2 -26 -2 -35 0 -10 3 -2 5 17 5 19 0
27 -2 18 -5z m160 -10 c-10 -2 -26 -2 -35 0 -10 3 -2 5 17 5 19 0 27 -2 18 -5z
m1537 -13 c9 -14 -10 -19 -79 -22 -39 -2 -61 1 -63 9 -6 18 131 30 142 13z
m-2180 -92 c-44 -87 -59 -105 -40 -52 8 22 14 47 15 56 0 19 50 82 58 74 3 -3
-12 -38 -33 -78z m2361 -62 c19 -44 34 -83 34 -87 0 -11 -25 -17 -100 -24 -36
-4 -96 -11 -134 -16 -38 -5 -70 -8 -71 -7 -5 5 -85 168 -85 171 0 3 39 8 88
12 48 4 116 13 152 20 36 7 69 12 73 11 5 -1 24 -37 43 -80z m-1015 55 c-15
-27 -191 -221 -201 -221 -5 0 -75 4 -157 10 -81 5 -256 16 -388 25 -348 22
-365 24 -365 42 0 14 12 15 88 9 378 -28 814 -55 825 -50 8 3 56 50 107 105
50 54 94 99 96 99 3 0 0 -8 -5 -19z m689 -101 c22 -44 40 -84 40 -88 0 -9 -38
-16 -160 -28 l-65 -6 -33 88 c-17 48 -31 89 -29 90 4 5 133 21 174 23 31 1 35
-3 73 -79z m-653 -266 c-3 -3 -12 -4 -19 -1 -8 3 -5 6 6 6 11 1 17 -2 13 -5z"/>
<path d="M5220 6895 c-41 -35 -80 -64 -87 -65 -7 0 -9 13 -6 40 4 30 2 40 -8
40 -17 -1 -50 -29 -65 -55 -9 -16 -25 -21 -78 -25 -43 -3 -70 -10 -77 -20 -8
-11 -9 -8 -5 15 4 28 4 28 -10 -6 -15 -34 -19 -37 -72 -42 -124 -13 -403 -29
-408 -24 -3 3 9 33 26 67 17 34 29 64 27 67 -3 2 -22 -23 -42 -55 -40 -65 -52
-72 -132 -72 -28 0 -55 -5 -58 -11 -4 -6 -13 -8 -21 -5 -8 3 -14 1 -14 -4 0
-22 -21 -8 -39 28 -11 20 -20 33 -21 28 0 -4 10 -26 22 -47 21 -38 23 -39 77
-39 31 0 128 7 216 15 88 8 270 21 404 30 134 9 253 20 265 25 11 5 50 35 86
67 36 32 81 70 100 85 29 23 31 28 15 28 -11 -1 -54 -30 -95 -65z"/>
<path d="M5040 6946 c0 -9 40 -13 46 -5 3 5 -6 9 -20 9 -14 0 -26 -2 -26 -4z"/>
<path d="M4295 6814 c-19 -15 -19 -15 10 -8 37 8 57 24 30 24 -11 0 -29 -8
-40 -16z"/>
<path d="M4050 6762 c-19 -9 -35 -23 -35 -29 0 -7 18 -33 39 -59 36 -43 40
-45 47 -26 7 17 6 44 -3 120 -2 15 -5 15 -48 -6z"/>
<path d="M5923 6660 c0 -47 2 -66 4 -42 2 23 2 61 0 85 -2 23 -4 4 -4 -43z"/>
<path d="M3919 6631 c-24 -24 -29 -38 -29 -76 0 -83 74 -126 119 -69 43 55 15
174 -40 174 -12 0 -34 -13 -50 -29z m40 -24 c-13 -13 -26 -22 -28 -20 -7 5 31
43 42 43 6 0 -1 -10 -14 -23z m43 -109 c-7 -7 -12 -8 -12 -2 0 14 12 26 19 19
2 -3 -1 -11 -7 -17z"/>
<path d="M6091 6063 c-6 -21 -10 -63 -10 -93 l1 -55 10 40 c12 55 22 145 15
145 -3 0 -11 -17 -16 -37z"/>
<path d="M6251 6074 c0 -11 3 -14 6 -6 3 7 2 16 -1 19 -3 4 -6 -2 -5 -13z"/>
<path d="M6261 6005 c-1 -27 -8 -67 -15 -88 -12 -31 -12 -36 -1 -27 15 13 29
103 22 141 -2 13 -5 2 -6 -26z"/>
<path d="M6162 6020 c0 -14 2 -19 5 -12 2 6 2 18 0 25 -3 6 -5 1 -5 -13z"/>
<path d="M6090 5904 c0 -6 7 -19 16 -30 14 -18 14 -18 3 6 -14 31 -19 36 -19
24z"/>
<path d="M3874 5345 c0 -77 2 -107 3 -67 2 40 2 103 0 140 -2 37 -3 4 -3 -73z"/>
<path d="M5980 5430 c0 -5 5 -10 11 -10 5 0 7 5 4 10 -3 6 -8 10 -11 10 -2 0
-4 -4 -4 -10z"/>
<path d="M6010 5416 c0 -2 7 -9 15 -16 13 -11 14 -10 9 4 -5 14 -24 23 -24 12z"/>
<path d="M3911 3691 c-8 -14 -7 -20 2 -24 7 -3 13 5 13 19 2 29 -2 30 -15 5z"/>
<path d="M4527 5110 c-9 -35 -27 -175 -27 -211 0 -27 3 -29 35 -29 42 0 42 3
16 160 -13 75 -20 98 -24 80z"/>
<path d="M4741 4968 c-6 -29 -14 -63 -17 -75 -6 -21 -3 -23 31 -23 34 0 37 2
31 23 -3 12 -10 46 -16 75 -7 28 -13 52 -14 52 -2 0 -8 -24 -15 -52z"/>
<path d="M4605 4839 c-7 -10 11 -170 22 -199 4 -12 51 167 53 203 0 11 -68 8
-75 -4z"/>
<path d="M4840 4839 c0 -27 24 -99 30 -92 4 4 14 29 23 56 l16 47 -35 0 c-19
0 -34 -5 -34 -11z"/>
</g>
</svg>
